<?xml version="1.0" standalone="no"?>
<!DOCTYPE svg PUBLIC "-//W3C//DTD SVG 20010904//EN"
 "http://www.w3.org/TR/2001/REC-SVG-20010904/DTD/svg10.dtd">
<svg version="1.0" xmlns="http://www.w3.org/2000/svg"
 width="514.000000pt" height="514.000000pt" viewBox="0 0 514.000000 514.000000"
 preserveAspectRatio="xMidYMid meet">
<metadata>
Created by potrace 1.14, written by Peter Selinger 2001-2017
</metadata>
<g transform="translate(0.000000,514.000000) scale(0.100000,-0.100000)"
fill="#000000" stroke="none">
<path d="M2925 3870 l1 -79 -96 -72 c-74 -56 -96 -78 -98 -98 -3 -33 -31 -122
-45 -138 -23 -30 10 -8 106 70 168 136 159 131 257 133 359 9 577 7 598 -4 19
-11 22 -10 22 4 0 31 -31 80 -62 99 -34 20 -49 20 -415 10 l-163 -5 0 80 0 80
-53 0 -53 0 1 -80z"/>
<path d="M3060 3652 c-93 -3 -100 -6 -187 -70 -122 -91 -517 -424 -530 -447
-12 -21 -3 -125 10 -125 7 0 35 22 62 48 28 26 77 70 110 97 33 28 62 52 65
55 12 13 195 165 297 246 l113 90 335 0 c217 -1 335 3 335 9 0 6 -9 24 -20 42
-35 58 -52 62 -301 60 -123 -1 -253 -3 -289 -5z"/>
<path d="M4161 3532 c-5 -26 -22 -90 -35 -142 -14 -51 -28 -116 -31 -144 -4
-27 -8 -57 -10 -68 -2 -10 0 -16 6 -13 5 4 9 12 9 18 0 7 16 30 36 52 109 122
141 180 130 239 -8 45 -39 85 -77 99 -13 4 -19 -5 -28 -41z"/>
<path d="M3985 3563 c-256 -58 -456 -129 -763 -270 -277 -127 -702 -353 -852
-453 -14 -10 -56 -37 -95 -61 -158 -99 -374 -257 -435 -320 -62 -64 -54 -63
49 5 186 123 390 218 608 280 112 32 153 41 233 52 19 2 46 6 60 9 14 2 57 7
95 10 39 4 86 8 105 10 31 4 100 8 310 20 54 4 381 13 615 19 l60 1 13 40 c7
22 15 90 18 150 7 149 7 154 42 285 17 63 33 133 37 155 3 22 8 48 11 58 5 15
-1 17 -43 16 -26 -1 -57 -3 -68 -6z"/>
<path d="M3308 2765 c-2 -1 -48 -6 -103 -10 -321 -23 -605 -84 -951 -206 -132
-46 -287 -110 -281 -115 2 -3 15 0 29 5 14 5 38 12 54 14 16 3 72 15 124 27
249 57 494 104 700 134 52 7 307 35 370 40 30 3 145 8 255 12 180 6 213 4 329
-15 152 -26 202 -25 319 6 74 20 298 112 274 113 -5 0 -52 -11 -105 -24 -119
-30 -212 -47 -261 -48 -48 0 -142 12 -161 21 -14 7 -49 15 -170 41 -39 8 -413
13 -422 5z"/>
<path d="M4160 2604 c-112 -29 -136 -33 -230 -29 -58 2 -118 6 -135 9 -202 36
-498 42 -608 12 -37 -10 -69 -22 -72 -26 -3 -5 27 -9 67 -9 40 0 82 -2 93 -5
11 -2 43 -7 70 -10 45 -6 252 -39 315 -50 277 -49 408 -28 578 91 90 64 94 63
-78 17z"/>
<path d="M2046 2083 c1 -137 2 -253 3 -259 0 -6 15 -10 31 -10 l30 0 0 258 0
258 -33 0 -32 0 1 -247z"/>
<path d="M3886 2078 c1 -139 2 -256 3 -259 0 -3 15 -5 31 -5 l30 0 0 258 0
258 -33 0 -32 0 1 -252z"/>
<path d="M4059 2318 c-1 -16 -1 -432 0 -476 1 -28 4 -32 24 -30 12 2 27 6 32
10 8 5 12 403 6 496 -1 7 -14 12 -31 12 -17 0 -30 -5 -31 -12z"/>
<path d="M245 2302 c-3 -3 -5 -85 -5 -182 0 -99 -5 -190 -11 -208 -12 -35 -48
-53 -99 -49 -31 2 -35 -1 -35 -23 0 -24 3 -25 61 -28 49 -2 65 1 87 18 55 44
61 67 61 279 l1 195 -27 1 c-15 1 -30 0 -33 -3z"/>
<path d="M3368 2302 l-27 -3 2 -242 2 -242 25 1 c14 1 28 2 33 3 4 0 7 44 7
96 l0 95 58 0 c107 0 175 59 175 153 0 64 -20 98 -73 123 -33 17 -137 25 -202
16z m175 -65 c32 -21 44 -75 26 -118 -15 -39 -73 -67 -123 -61 l-34 4 -4 72
c-2 39 -2 83 0 98 3 26 5 27 56 25 29 -2 65 -11 79 -20z"/>
<path d="M3726 2298 c-24 -14 -20 -57 7 -67 26 -10 57 11 52 37 -2 9 -4 20 -4
23 -2 12 -38 17 -55 7z"/>
<path d="M494 2164 c-134 -46 -156 -264 -33 -334 36 -19 51 -22 116 -18 79 5
98 14 87 42 -5 13 -14 15 -42 10 -103 -20 -163 9 -178 84 l-6 32 127 0 128 0
-6 48 c-8 65 -22 93 -60 119 -42 28 -84 34 -133 17z m88 -45 c24 -13 54 -79
39 -88 -13 -8 -168 -7 -177 1 -9 9 23 65 48 82 26 19 61 20 90 5z"/>
<path d="M881 2159 c-16 -10 -34 -26 -40 -36 -6 -10 -11 -13 -12 -8 -1 6 -2
15 -4 20 -1 6 -3 16 -3 23 -1 6 -13 12 -27 12 l-25 0 0 -178 0 -178 30 0 c17
0 31 2 31 5 1 3 2 56 3 116 3 137 18 168 87 178 22 4 32 27 23 51 -7 18 -29
16 -63 -5z"/>
<path d="M1481 2170 c-41 -10 -78 -46 -85 -81 -8 -45 20 -84 82 -114 62 -30
72 -40 72 -71 0 -42 -52 -60 -112 -39 -34 11 -37 10 -46 -10 -9 -19 -7 -24 14
-34 14 -6 48 -11 77 -11 69 0 112 26 126 76 16 58 -6 94 -80 130 -68 32 -81
48 -67 80 13 28 55 39 93 24 22 -8 30 -8 37 2 19 30 13 35 -62 52 -8 2 -30 0
-49 -4z"/>
<path d="M1750 2168 c-44 -12 -62 -29 -51 -47 7 -11 17 -11 57 -1 60 15 100 2
114 -35 15 -40 14 -42 -47 -49 -66 -8 -126 -39 -142 -73 -35 -76 11 -153 91
-153 25 0 56 8 76 20 40 25 42 25 42 0 0 -15 5 -19 23 -16 12 3 24 5 27 5 12
2 1 261 -12 287 -28 57 -100 82 -178 62z m128 -211 c2 -20 -2 -45 -8 -56 -11
-21 -56 -48 -75 -46 -31 3 -54 19 -59 40 -13 51 21 86 94 98 40 6 45 3 48 -36z"/>
<path d="M2323 2170 c-82 -19 -127 -81 -127 -179 -1 -112 50 -172 151 -179 77
-5 128 8 128 34 0 13 -6 18 -20 16 -70 -8 -125 -4 -150 12 -24 16 -55 70 -55
96 0 6 46 10 126 10 l127 0 -6 54 c-3 30 -13 66 -23 81 -29 44 -94 68 -151 55z
m82 -62 c15 -13 27 -35 28 -52 l2 -29 -87 -1 c-86 -2 -88 -1 -88 22 0 13 13
37 29 53 36 36 79 38 116 7z"/>
<path d="M2700 2164 c-19 -8 -38 -22 -43 -30 -4 -7 -13 -14 -18 -14 -6 0 -8 4
-5 9 11 18 -6 41 -30 41 l-24 0 0 -178 0 -179 23 1 c12 1 27 4 32 8 6 3 10 52
9 115 -2 141 19 183 89 183 50 0 62 -30 67 -174 5 -125 6 -131 27 -134 12 -2
25 3 29 9 4 7 7 64 7 126 -1 107 1 116 24 144 31 36 80 40 109 8 16 -18 20
-40 22 -153 l4 -133 25 2 c13 0 27 6 31 12 4 6 6 65 5 131 -1 88 -6 128 -17
151 -37 70 -120 86 -184 34 l-36 -29 -25 27 c-32 34 -76 42 -121 23z"/>
<path d="M4305 2172 c-33 -5 -75 -24 -75 -32 0 -33 11 -37 52 -23 49 17 93 9
113 -20 24 -34 19 -57 -12 -58 -64 -2 -124 -23 -154 -55 -19 -20 -24 -37 -24
-76 0 -43 4 -53 29 -75 26 -22 37 -25 83 -21 30 3 61 12 71 21 23 21 30 21 34
0 2 -10 13 -18 29 -18 l26 -2 -2 137 c-2 112 -6 143 -21 168 -25 44 -85 65
-149 54z m105 -222 c0 -35 -5 -52 -22 -68 -50 -46 -120 -27 -120 32 0 37 31
67 79 75 63 11 63 11 63 -39z"/>
<path d="M4713 2172 c-12 -2 -36 -19 -53 -39 -24 -26 -31 -31 -30 -17 5 46 1
55 -27 52 l-26 -3 -1 -173 c-1 -94 1 -173 4 -173 24 -6 52 -5 57 4 3 5 6 57 7
116 2 130 19 168 79 173 29 3 41 29 23 51 -6 7 -21 11 -33 9z"/>
<path d="M4886 2170 c-62 -19 -94 -71 -75 -127 9 -27 23 -40 70 -64 66 -33 88
-64 70 -98 -7 -11 -17 -21 -24 -22 -7 0 -19 -2 -28 -4 -8 -1 -32 3 -53 10 -35
12 -38 12 -46 -8 -11 -29 -2 -36 58 -46 94 -15 161 27 162 100 0 48 -27 81
-88 107 -59 25 -76 44 -67 72 9 30 49 43 93 30 20 -5 37 -8 38 -7 1 1 5 12 8
24 6 18 2 22 -26 28 -18 4 -40 8 -48 10 -8 2 -28 -1 -44 -5z"/>
<path d="M1007 2163 c-2 -5 -3 -64 -2 -133 2 -134 13 -174 57 -204 34 -24 99
-20 141 8 37 25 47 24 47 -4 0 -15 19 -19 50 -11 4 1 5 232 1 329 -1 18 -7 22
-31 22 -34 0 -31 13 -33 -150 -2 -109 -17 -144 -66 -155 -80 -17 -101 21 -101
185 l0 120 -29 0 c-17 0 -32 -3 -34 -7z"/>
<path d="M3718 2158 c-2 -7 -4 -87 -4 -178 l1 -165 30 0 30 0 3 178 2 177 -29
0 c-16 0 -31 -6 -33 -12z"/>
<path d="M1149 1671 c0 -20 -1 -108 -1 -196 l-2 -160 27 -3 26 -3 -1 199 0
200 -24 0 c-21 0 -24 -5 -25 -37z"/>
<path d="M1902 1678 c-7 -7 -12 -18 -12 -24 0 -15 35 -28 50 -19 16 10 12 42
-6 49 -20 8 -18 8 -32 -6z"/>
<path d="M2440 1675 c-18 -21 -5 -47 22 -43 26 3 37 36 16 49 -18 12 -24 11
-38 -6z"/>
<path d="M3916 1675 c-20 -21 -10 -45 19 -45 27 0 36 17 23 43 -11 21 -22 22
-42 2z"/>
<path d="M2273 1647 c-4 -7 -8 -23 -8 -37 0 -18 -6 -26 -23 -28 -29 -4 -26
-37 3 -37 18 0 20 -8 20 -90 1 -50 4 -100 9 -112 14 -43 106 -52 106 -11 0 15
-5 19 -19 15 -37 -9 -49 21 -48 113 l2 85 33 -1 c26 0 32 3 32 21 0 18 -5 21
-35 19 -34 -3 -34 -2 -32 33 1 28 -2 37 -15 39 -10 1 -21 -3 -25 -9z"/>
<path d="M1338 1571 c-50 -26 -72 -64 -72 -125 0 -86 48 -139 128 -139 81 0
137 64 130 150 -7 105 -97 160 -186 114z m99 -36 c68 -47 44 -176 -35 -190
-26 -4 -37 -1 -56 20 -78 84 2 232 91 170z"/>
<path d="M1635 1570 c-45 -23 -67 -73 -61 -140 4 -47 10 -60 40 -87 43 -40 90
-44 130 -12 l27 21 -3 -36 c-4 -66 -54 -96 -124 -77 -29 8 -40 8 -46 -2 -23
-36 96 -55 158 -26 54 26 65 66 62 228 -3 128 -5 144 -20 147 -12 1 -18 -4
-18 -17 0 -18 -1 -18 -33 1 -37 22 -68 22 -112 0z m110 -45 c33 -32 35 -110 4
-149 -37 -47 -111 -27 -124 35 -23 102 57 178 120 114z"/>
<path d="M2069 1579 c-27 -10 -49 -46 -49 -78 0 -22 34 -53 83 -76 27 -13 37
-23 37 -41 0 -36 -32 -49 -87 -35 -26 8 -32 6 -36 -10 -10 -38 95 -46 143 -11
53 40 31 109 -46 142 -30 13 -44 25 -44 38 0 30 25 45 64 38 35 -7 57 7 39 25
-15 15 -75 20 -104 8z"/>
<path d="M2442 1572 c-6 -13 -8 -183 -3 -249 1 -7 12 -13 24 -13 24 0 24 1 26
134 2 127 1 134 -19 139 -13 3 -23 -1 -28 -11z"/>
<path d="M2627 1571 c-43 -22 -68 -61 -74 -113 -7 -56 18 -113 58 -134 57 -29
149 -22 149 11 0 11 -10 15 -37 13 -72 -2 -83 1 -104 35 -26 41 -21 109 10
141 17 16 34 21 76 21 45 0 55 3 55 17 0 30 -81 35 -133 9z"/>
<path d="M2968 1574 c-15 -8 -31 -26 -34 -39 -12 -47 3 -72 59 -102 58 -31 73
-64 38 -83 -18 -9 -73 -6 -92 5 -6 4 -19 -17 -19 -30 0 -9 60 -22 90 -19 106
12 119 109 22 158 -56 28 -68 48 -45 72 12 12 27 14 54 10 27 -4 38 -2 43 9 3
8 1 17 -5 21 -22 13 -85 12 -111 -2z"/>
<path d="M3235 1583 c-114 -29 -130 -215 -22 -263 54 -24 162 -14 151 14 -4
11 -22 14 -66 13 -54 -2 -62 1 -84 26 -13 15 -24 36 -24 46 0 16 9 18 78 19
117 0 112 -1 112 28 0 44 -31 95 -66 110 -34 14 -45 15 -79 7z m79 -55 c32
-46 23 -56 -54 -56 -77 0 -84 7 -49 52 27 34 81 36 103 4z"/>
<path d="M3446 1582 c-3 -5 -5 -68 -4 -140 l0 -132 24 0 c18 0 24 6 24 23 2
147 6 169 29 188 13 11 32 19 42 19 14 0 19 7 19 26 0 23 -3 25 -27 20 -16 -4
-36 -16 -45 -28 -16 -18 -22 -17 -19 4 1 11 -37 29 -43 20z"/>
<path d="M3622 1581 c-10 -6 0 -41 38 -139 46 -117 54 -132 75 -132 21 0 29
15 74 130 28 72 51 132 51 135 0 3 -11 5 -24 5 -21 0 -27 -11 -55 -92 -18 -51
-34 -100 -38 -108 -5 -14 -71 148 -72 177 -1 17 -34 33 -49 24z"/>
<path d="M3910 1449 l0 -139 25 0 25 0 0 135 c0 74 -3 135 -7 136 -5 0 -16 2
-25 4 -16 3 -18 -9 -18 -136z"/>
<path d="M4099 1572 c-91 -45 -101 -192 -16 -246 47 -30 163 -23 150 9 -4 11
-16 14 -42 12 -53 -6 -87 10 -105 48 -20 41 -20 56 -2 99 16 39 62 61 110 53
28 -4 35 -2 39 14 4 14 0 19 -16 21 -68 5 -91 3 -118 -10z"/>
<path d="M4351 1577 c-53 -19 -76 -57 -78 -133 -2 -61 0 -66 33 -99 33 -34 55
-41 114 -37 46 2 70 12 70 28 0 12 -9 14 -47 10 -61 -6 -108 13 -117 48 -3 14
-7 29 -9 33 -1 5 36 9 83 10 47 1 91 2 99 2 10 1 12 11 7 42 -8 51 -32 85 -70
99 -35 12 -42 12 -85 -3z m93 -52 c29 -44 22 -51 -54 -53 -73 -2 -79 2 -59 41
16 30 28 37 65 37 23 0 36 -7 48 -25z"/>
<path d="M4588 1560 c-49 -50 -35 -91 45 -129 36 -18 47 -28 47 -47 0 -39 -45
-52 -101 -29 -11 4 -18 0 -22 -14 -5 -21 2 -26 57 -35 36 -6 91 16 105 42 27
51 2 95 -71 126 -64 26 -43 84 27 73 36 -6 55 7 36 26 -6 6 -29 12 -52 13 -35
2 -47 -3 -71 -26z"/>
<path d="M1899 1575 c0 -3 -1 -62 -1 -132 l-1 -128 26 -3 27 -3 0 135 0 136
-25 0 c-14 0 -25 -2 -26 -5z"/>
</g>
</svg>
